<svg width="20" height="20" viewBox="0 0 20 20" fill="none" xmlns="http://www.w3.org/2000/svg">
<g clip-path="url(#clip0_9_238)">
<path d="M3.33335 18.3333H16.6667C17.1087 18.3333 17.5326 18.1577 17.8452 17.8452C18.1578 17.5326 18.3334 17.1087 18.3334 16.6667V3.33332C18.3334 2.8913 18.1578 2.46737 17.8452 2.15481C17.5326 1.84225 17.1087 1.66666 16.6667 1.66666H6.66669C6.22466 1.66666 5.80074 1.84225 5.48818 2.15481C5.17561 2.46737 5.00002 2.8913 5.00002 3.33332V16.6667C5.00002 17.1087 4.82443 17.5326 4.51186 17.8452C4.1993 18.1577 3.77538 18.3333 3.33335 18.3333ZM3.33335 18.3333C2.89133 18.3333 2.4674 18.1577 2.15484 17.8452C1.84228 17.5326 1.66669 17.1087 1.66669 16.6667V9.16666C1.66669 8.24999 2.41669 7.49999 3.33335 7.49999H5.00002" stroke="#ACACAC" stroke-width="1.66667"/>
<path d="M15 11.6667H8.33331M12.5 15H8.33331M9.33331 8.33333H14C14.5523 8.33333 15 7.88562 15 7.33333V6C15 5.44772 14.5523 5 14 5H9.33331C8.78103 5 8.33331 5.44771 8.33331 6V7.33333C8.33331 7.88562 8.78103 8.33333 9.33331 8.33333Z" stroke="#ACACAC" stroke-width="1.66667" stroke-linecap="round"/>
</g>
<defs>
<clipPath id="clip0_9_238">
<rect width="20" height="20" fill="white"/>
</clipPath>
</defs>
</svg>
