<svg width="20" height="20" viewBox="0 0 20 20" fill="none" xmlns="http://www.w3.org/2000/svg">
<path d="M9.16667 15.8333C12.8486 15.8333 15.8333 12.8486 15.8333 9.16667C15.8333 5.48477 12.8486 2.5 9.16667 2.5C5.48477 2.5 2.5 5.48477 2.5 9.16667C2.5 12.8486 5.48477 15.8333 9.16667 15.8333Z" stroke="#ACACAC" stroke-width="1.66667"/>
<path d="M16.9107 18.0893C17.067 18.2455 17.279 18.3333 17.5 18.3333C17.721 18.3333 17.933 18.2455 18.0893 18.0893C18.2455 17.933 18.3333 17.721 18.3333 17.5C18.3333 17.279 18.2455 17.067 18.0893 16.9107C18.0893 16.9107 18.0893 16.9107 18.0893 16.9107C18.0288 16.8503 17.9684 16.7899 17.908 16.7295C16.8205 15.642 15.733 14.5545 14.6455 13.467C14.5851 13.4066 14.5247 13.3462 14.4643 13.2857C14.308 13.1295 14.096 13.0417 13.875 13.0417C13.654 13.0417 13.442 13.1295 13.2857 13.2857C13.1295 13.442 13.0417 13.654 13.0417 13.875C13.0417 14.096 13.1295 14.308 13.2857 14.4643C13.3462 14.5247 13.4066 14.5851 13.467 14.6455C14.5545 15.733 15.642 16.8205 16.7295 17.908C16.7899 17.9684 16.8503 18.0288 16.9107 18.0893Z" fill="#ACACAC"/>
</svg>
