<svg width="20" height="20" viewBox="0 0 20 20" fill="none" xmlns="http://www.w3.org/2000/svg">
<path d="M10 12.5C11.3807 12.5 12.5 11.3807 12.5 10C12.5 8.61929 11.3807 7.5 10 7.5C8.61929 7.5 7.5 8.61929 7.5 10C7.5 11.3807 8.61929 12.5 10 12.5Z" stroke="#ACACAC" stroke-width="1.33333" stroke-linecap="round" stroke-linejoin="round"/>
<path d="M16.25 9.99999C16.25 9.80832 16.2416 9.62499 16.225 9.43332L17.775 8.25832C18.1083 8.00832 18.2 7.54166 17.9916 7.17499L16.4333 4.48332C16.225 4.11666 15.775 3.96666 15.3916 4.13332L13.6 4.89166C13.2916 4.67499 12.9666 4.48332 12.625 4.32499L12.3833 2.39999C12.3333 1.98332 11.975 1.66666 11.5583 1.66666H8.44997C8.02497 1.66666 7.66663 1.98332 7.61663 2.39999L7.37497 4.32499C7.0333 4.48332 6.7083 4.67499 6.39997 4.89166L4.6083 4.13332C4.22497 3.96666 3.77497 4.11666 3.56663 4.48332L2.0083 7.18332C1.79997 7.54999 1.89163 8.00832 2.22497 8.26666L3.77497 9.44166C3.7583 9.62499 3.74997 9.80832 3.74997 9.99999C3.74997 10.1917 3.7583 10.375 3.77497 10.5667L2.22497 11.7417C1.89163 11.9917 1.79997 12.4583 2.0083 12.825L3.56663 15.5167C3.77497 15.8833 4.22497 16.0333 4.6083 15.8667L6.39997 15.1083C6.7083 15.325 7.0333 15.5167 7.37497 15.675L7.61663 17.6C7.66663 18.0167 8.02497 18.3333 8.44163 18.3333H11.55C11.9666 18.3333 12.325 18.0167 12.375 17.6L12.6166 15.675C12.9583 15.5167 13.2833 15.325 13.5916 15.1083L15.3833 15.8667C15.7666 16.0333 16.2166 15.8833 16.425 15.5167L17.9833 12.825C18.1916 12.4583 18.1 12 17.7666 11.7417L16.2166 10.5667C16.2416 10.375 16.25 10.1917 16.25 9.99999Z" stroke="#ACACAC" stroke-width="1.33333" stroke-linecap="round" stroke-linejoin="round"/>
</svg>
